<?xml version="1.0" encoding="UTF-8" standalone="no"?>
<!-- Uploaded to: SVG Repo, www.svgrepo.com, Generator: SVG Repo Mixer Tools -->

<svg
   fill="#000000"
   height="800px"
   width="800px"
   version="1.1"
   id="Layer_1"
   viewBox="0 0 512.001 512.001"
   xml:space="preserve"
   sodipodi:docname="juegos.svg"
   inkscape:version="1.4.2 (f4327f4, 2025-05-13)"
   xmlns:inkscape="http://www.inkscape.org/namespaces/inkscape"
   xmlns:sodipodi="http://sodipodi.sourceforge.net/DTD/sodipodi-0.dtd"
   xmlns="http://www.w3.org/2000/svg"
   xmlns:svg="http://www.w3.org/2000/svg"><defs
   id="defs2" /><sodipodi:namedview
   id="namedview2"
   pagecolor="#ffffff"
   bordercolor="#000000"
   borderopacity="0.25"
   inkscape:showpageshadow="2"
   inkscape:pageopacity="0.0"
   inkscape:pagecheckerboard="0"
   inkscape:deskcolor="#d1d1d1"
   inkscape:zoom="1.00875"
   inkscape:cx="400"
   inkscape:cy="400"
   inkscape:window-width="1920"
   inkscape:window-height="1009"
   inkscape:window-x="-8"
   inkscape:window-y="-8"
   inkscape:window-maximized="1"
   inkscape:current-layer="Layer_1" />
<g
   id="g2"
   style="fill:#ffffff">
	<g
   id="g1"
   style="fill:#ffffff">
		<path
   d="M508.011,371.606L405.334,227.841V42.667c0-11.776-9.536-21.333-21.333-21.333h-256c-11.797,0-21.333,9.557-21.333,21.333    v9.259l-96.32,57.792c-5.099,3.051-8.683,8.107-9.899,13.931c-1.216,5.845,0.064,11.904,3.541,16.747l102.677,143.765v185.173    c0,11.776,9.536,21.333,21.333,21.333h256c11.797,0,21.333-9.557,21.333-21.333v-9.259l96.32-57.771    c5.099-3.072,8.683-8.128,9.899-13.952C512.769,382.507,511.489,376.449,508.011,371.606z M106.667,210.774l-54.549-76.373    l54.549-32.725V210.774z M320.001,170.667c11.776,0,21.333,9.557,21.333,21.333s-9.557,21.333-21.333,21.333    s-21.333-9.557-21.333-21.333S308.225,170.667,320.001,170.667z M256.001,128.001c11.776,0,21.333,9.557,21.333,21.333    s-9.557,21.333-21.333,21.333c-11.776,0-21.333-9.557-21.333-21.333S244.225,128.001,256.001,128.001z M192.001,85.334    c11.776,0,21.333,9.557,21.333,21.333s-9.557,21.333-21.333,21.333s-21.333-9.557-21.333-21.333S180.225,85.334,192.001,85.334z     M192.001,426.667c-11.776,0-21.333-9.557-21.333-21.333s9.557-21.333,21.333-21.333s21.333,9.557,21.333,21.333    S203.777,426.667,192.001,426.667z M192.001,341.334c-11.776,0-21.333-9.557-21.333-21.333s9.557-21.333,21.333-21.333    s21.333,9.557,21.333,21.333S203.777,341.334,192.001,341.334z M320.001,426.667c-11.776,0-21.333-9.557-21.333-21.333    s9.557-21.333,21.333-21.333s21.333,9.557,21.333,21.333S331.777,426.667,320.001,426.667z M320.001,341.334    c-11.776,0-21.333-9.557-21.333-21.333s9.557-21.333,21.333-21.333s21.333,9.557,21.333,21.333S331.777,341.334,320.001,341.334z     M405.334,410.326V301.249l54.549,76.352L405.334,410.326z"
   id="path1"
   style="fill:#ffffff" />
	</g>
</g>
</svg>
